<svg xmlns="http://www.w3.org/2000/svg" xmlns:xlink="http://www.w3.org/1999/xlink" width="338" zoomAndPan="magnify" viewBox="0 0 253.5 30.000001" height="40" preserveAspectRatio="xMidYMid meet" version="1.0"><defs><g/><clipPath id="2c289e0697"><path d="M 3.847656 0 L 249.167969 0 L 249.167969 29.03125 L 3.847656 29.03125 Z M 3.847656 0 " clip-rule="nonzero"/></clipPath><clipPath id="cc683b543c"><path d="M 16.867188 0.589844 L 236.058594 0.589844 L 236.058594 28.894531 L 16.867188 28.894531 Z M 16.867188 0.589844 " clip-rule="nonzero"/></clipPath><linearGradient x1="-0.000000136889" gradientTransform="matrix(2.343611, 0, 0, 2.343611, 0.000000320815, -0.00000124624)" y1="8.354" x2="128.860289" gradientUnits="userSpaceOnUse" y2="8.354" id="31988a9590"><stop stop-opacity="1" stop-color="rgb(89.399719%, 78.399658%, 32.499695%)" offset="0"/><stop stop-opacity="1" stop-color="rgb(89.482117%, 78.231812%, 32.481384%)" offset="0.015625"/><stop stop-opacity="1" stop-color="rgb(89.646912%, 77.896118%, 32.444763%)" offset="0.03125"/><stop stop-opacity="1" stop-color="rgb(89.813232%, 77.558899%, 32.409668%)" offset="0.046875"/><stop stop-opacity="1" stop-color="rgb(89.978027%, 77.223206%, 32.373047%)" offset="0.0625"/><stop stop-opacity="1" stop-color="rgb(90.144348%, 76.887512%, 32.337952%)" offset="0.078125"/><stop stop-opacity="1" stop-color="rgb(90.309143%, 76.551819%, 32.301331%)" offset="0.09375"/><stop stop-opacity="1" stop-color="rgb(90.475464%, 76.216125%, 32.264709%)" offset="0.109375"/><stop stop-opacity="1" stop-color="rgb(90.640259%, 75.880432%, 32.229614%)" offset="0.125"/><stop stop-opacity="1" stop-color="rgb(90.80658%, 75.544739%, 32.192993%)" offset="0.140625"/><stop stop-opacity="1" stop-color="rgb(90.971375%, 75.209045%, 32.157898%)" offset="0.15625"/><stop stop-opacity="1" stop-color="rgb(91.137695%, 74.873352%, 32.121277%)" offset="0.171875"/><stop stop-opacity="1" stop-color="rgb(91.30249%, 74.537659%, 32.086182%)" offset="0.1875"/><stop stop-opacity="1" stop-color="rgb(91.468811%, 74.201965%, 32.049561%)" offset="0.203125"/><stop stop-opacity="1" stop-color="rgb(91.633606%, 73.866272%, 32.014465%)" offset="0.21875"/><stop stop-opacity="1" stop-color="rgb(91.799927%, 73.529053%, 31.977844%)" offset="0.234375"/><stop stop-opacity="1" stop-color="rgb(91.964722%, 73.193359%, 31.942749%)" offset="0.25"/><stop stop-opacity="1" stop-color="rgb(92.131042%, 72.857666%, 31.906128%)" offset="0.265625"/><stop stop-opacity="1" stop-color="rgb(92.295837%, 72.521973%, 31.869507%)" offset="0.28125"/><stop stop-opacity="1" stop-color="rgb(92.462158%, 72.186279%, 31.834412%)" offset="0.296875"/><stop stop-opacity="1" stop-color="rgb(92.626953%, 71.850586%, 31.797791%)" offset="0.3125"/><stop stop-opacity="1" stop-color="rgb(92.793274%, 71.514893%, 31.762695%)" offset="0.328125"/><stop stop-opacity="1" stop-color="rgb(92.958069%, 71.179199%, 31.726074%)" offset="0.34375"/><stop stop-opacity="1" stop-color="rgb(93.12439%, 70.843506%, 31.690979%)" offset="0.359375"/><stop stop-opacity="1" stop-color="rgb(93.289185%, 70.507812%, 31.654358%)" offset="0.375"/><stop stop-opacity="1" stop-color="rgb(93.455505%, 70.172119%, 31.619263%)" offset="0.390625"/><stop stop-opacity="1" stop-color="rgb(93.6203%, 69.836426%, 31.582642%)" offset="0.40625"/><stop stop-opacity="1" stop-color="rgb(93.786621%, 69.500732%, 31.547546%)" offset="0.421875"/><stop stop-opacity="1" stop-color="rgb(93.951416%, 69.163513%, 31.510925%)" offset="0.4375"/><stop stop-opacity="1" stop-color="rgb(94.117737%, 68.82782%, 31.474304%)" offset="0.453125"/><stop stop-opacity="1" stop-color="rgb(94.282532%, 68.492126%, 31.439209%)" offset="0.46875"/><stop stop-opacity="1" stop-color="rgb(94.448853%, 68.156433%, 31.402588%)" offset="0.484375"/><stop stop-opacity="1" stop-color="rgb(94.613647%, 67.82074%, 31.367493%)" offset="0.5"/><stop stop-opacity="1" stop-color="rgb(94.779968%, 67.485046%, 31.330872%)" offset="0.515625"/><stop stop-opacity="1" stop-color="rgb(94.944763%, 67.149353%, 31.295776%)" offset="0.53125"/><stop stop-opacity="1" stop-color="rgb(95.111084%, 66.81366%, 31.259155%)" offset="0.546875"/><stop stop-opacity="1" stop-color="rgb(95.275879%, 66.477966%, 31.22406%)" offset="0.5625"/><stop stop-opacity="1" stop-color="rgb(95.4422%, 66.142273%, 31.187439%)" offset="0.578125"/><stop stop-opacity="1" stop-color="rgb(95.606995%, 65.80658%, 31.152344%)" offset="0.59375"/><stop stop-opacity="1" stop-color="rgb(95.773315%, 65.470886%, 31.115723%)" offset="0.609375"/><stop stop-opacity="1" stop-color="rgb(95.93811%, 65.133667%, 31.079102%)" offset="0.625"/><stop stop-opacity="1" stop-color="rgb(96.104431%, 64.797974%, 31.044006%)" offset="0.640625"/><stop stop-opacity="1" stop-color="rgb(96.269226%, 64.46228%, 31.007385%)" offset="0.65625"/><stop stop-opacity="1" stop-color="rgb(96.435547%, 64.126587%, 30.97229%)" offset="0.671875"/><stop stop-opacity="1" stop-color="rgb(96.600342%, 63.790894%, 30.935669%)" offset="0.6875"/><stop stop-opacity="1" stop-color="rgb(96.766663%, 63.4552%, 30.900574%)" offset="0.703125"/><stop stop-opacity="1" stop-color="rgb(96.931458%, 63.119507%, 30.863953%)" offset="0.71875"/><stop stop-opacity="1" stop-color="rgb(97.097778%, 62.783813%, 30.828857%)" offset="0.734375"/><stop stop-opacity="1" stop-color="rgb(97.262573%, 62.44812%, 30.792236%)" offset="0.75"/><stop stop-opacity="1" stop-color="rgb(97.428894%, 62.112427%, 30.757141%)" offset="0.765625"/><stop stop-opacity="1" stop-color="rgb(97.593689%, 61.776733%, 30.72052%)" offset="0.78125"/><stop stop-opacity="1" stop-color="rgb(97.76001%, 61.44104%, 30.685425%)" offset="0.796875"/><stop stop-opacity="1" stop-color="rgb(97.924805%, 61.103821%, 30.648804%)" offset="0.8125"/><stop stop-opacity="1" stop-color="rgb(98.091125%, 60.768127%, 30.612183%)" offset="0.828125"/><stop stop-opacity="1" stop-color="rgb(98.25592%, 60.432434%, 30.577087%)" offset="0.84375"/><stop stop-opacity="1" stop-color="rgb(98.422241%, 60.096741%, 30.540466%)" offset="0.859375"/><stop stop-opacity="1" stop-color="rgb(98.587036%, 59.761047%, 30.505371%)" offset="0.875"/><stop stop-opacity="1" stop-color="rgb(98.753357%, 59.425354%, 30.46875%)" offset="0.890625"/><stop stop-opacity="1" stop-color="rgb(98.918152%, 59.089661%, 30.433655%)" offset="0.90625"/><stop stop-opacity="1" stop-color="rgb(99.084473%, 58.753967%, 30.397034%)" offset="0.921875"/><stop stop-opacity="1" stop-color="rgb(99.250793%, 58.418274%, 30.361938%)" offset="0.9375"/><stop stop-opacity="1" stop-color="rgb(99.415588%, 58.082581%, 30.325317%)" offset="0.953125"/><stop stop-opacity="1" stop-color="rgb(99.581909%, 57.746887%, 30.290222%)" offset="0.96875"/><stop stop-opacity="1" stop-color="rgb(99.746704%, 57.411194%, 30.253601%)" offset="0.984375"/><stop stop-opacity="1" stop-color="rgb(99.913025%, 57.073975%, 30.21698%)" offset="1"/></linearGradient></defs><g clip-path="url(#2c289e0697)"><path fill="#ffffff" d="M 3.847656 0 L 249.167969 0 L 249.167969 29.03125 L 3.847656 29.03125 Z M 3.847656 0 " fill-opacity="1" fill-rule="nonzero"/></g><g clip-path="url(#cc683b543c)"><path stroke-linecap="butt" transform="matrix(0.725806, 0, 0, 0.725806, 16.867421, 0.588159)" fill="none" stroke-linejoin="miter" d="M -0.000322255 0.00232167 L 302.104368 0.00232167 L 302.104368 39.155968 L -0.000322255 39.155968 Z M -0.000322255 0.00232167 " stroke="url(#31988a9590)" stroke-width="4" stroke-miterlimit="4"/></g><g fill="#e4b344" fill-opacity="1"><g transform="translate(65.518707, 18.790867)"><g><path d="M 5.496094 -9.503906 C 7.679688 -9.503906 9.070312 -8.019531 9.070312 -4.800781 C 9.070312 -2.027344 7.789062 -0.527344 6.023438 -0.527344 C 4.164062 -0.527344 2.398438 -2.089844 2.398438 -5.0625 C 2.398438 -8.3125 4.007812 -9.503906 5.496094 -9.503906 Z M 10.667969 -5.09375 C 10.667969 -8.160156 8.484375 -10.1875 5.695312 -10.1875 C 2.925781 -10.1875 0.804688 -7.832031 0.804688 -4.800781 C 0.804688 -1.75 3.050781 0.15625 5.710938 0.15625 C 8.667969 0.15625 10.667969 -1.996094 10.667969 -5.09375 Z M 10.667969 -5.09375 "/></g></g></g><g fill="#e4b344" fill-opacity="1"><g transform="translate(78.042404, 18.790867)"><g><path d="M 1.671875 -9.984375 C 1.8125 -7.042969 1.765625 -2.460938 1.515625 0 L 1.546875 0.046875 C 1.734375 0.015625 1.902344 0 2.089844 0 C 2.277344 0 2.445312 0.015625 2.632812 0.046875 L 2.664062 0 C 2.539062 -0.882812 2.507812 -1.933594 2.507812 -3.097656 L 2.507812 -6.796875 C 2.507812 -7.742188 2.523438 -7.789062 3.113281 -7.042969 L 8.515625 -0.214844 C 8.683594 0.015625 8.933594 0.15625 9.179688 0.15625 C 9.398438 0.15625 9.460938 -0.03125 9.476562 -0.324219 C 9.550781 -3.855469 9.535156 -6.546875 9.785156 -9.984375 L 9.753906 -10.03125 C 9.566406 -10 9.398438 -9.984375 9.210938 -9.984375 C 9.027344 -9.984375 8.855469 -10 8.667969 -10.03125 L 8.636719 -9.984375 C 8.761719 -9.101562 8.792969 -8.050781 8.792969 -6.890625 L 8.792969 -2.753906 C 8.761719 -1.902344 8.546875 -2.261719 7.878906 -3.144531 L 2.570312 -10.015625 C 2.570312 -10.015625 2.414062 -9.984375 2.351562 -9.984375 C 1.828125 -9.984375 1.703125 -10.03125 1.703125 -10.03125 Z M 1.671875 -9.984375 "/></g></g></g><g fill="#e4b344" fill-opacity="1"><g transform="translate(90.210064, 18.790867)"><g><path d="M 2.941406 -1.269531 L 2.941406 -8.730469 C 2.941406 -9.273438 3.484375 -9.351562 4.242188 -9.351562 C 7.585938 -9.351562 8.59375 -6.78125 8.59375 -4.398438 C 8.59375 -1.269531 6.8125 -0.648438 4.628906 -0.648438 C 3.113281 -0.648438 2.941406 -0.773438 2.941406 -1.269531 Z M 2.277344 -9.984375 C 1.75 -9.984375 1.484375 -10.03125 1.484375 -10.03125 L 1.457031 -9.984375 C 1.578125 -9.101562 1.609375 -8.050781 1.609375 -6.890625 L 1.609375 -3.097656 C 1.609375 -1.933594 1.578125 -0.835938 1.457031 0 L 1.472656 0.046875 C 1.472656 0.046875 1.734375 0 2.277344 0 C 3.375 0 3.515625 0.03125 5.109375 0.03125 C 7.292969 0.03125 10.1875 -0.960938 10.1875 -4.769531 C 10.1875 -7.648438 7.800781 -10.03125 4.832031 -10.03125 C 3.839844 -10.03125 3.265625 -9.984375 2.277344 -9.984375 Z M 2.277344 -9.984375 "/></g></g></g><g fill="#e4b344" fill-opacity="1"><g transform="translate(102.253884, 18.790867)"><g><path d="M 2.941406 -3.097656 L 2.941406 -4.90625 C 3.683594 -4.90625 5.324219 -4.859375 6.394531 -4.753906 L 6.441406 -4.800781 C 6.410156 -4.9375 6.394531 -5.15625 6.394531 -5.292969 C 6.394531 -5.433594 6.410156 -5.652344 6.441406 -5.789062 L 6.394531 -5.835938 C 5.480469 -5.757812 4.769531 -5.683594 2.941406 -5.683594 L 2.941406 -6.890625 C 2.941406 -7.152344 2.957031 -8.746094 3.066406 -9.117188 C 5.140625 -9.117188 7.277344 -8.933594 7.277344 -8.933594 L 7.308594 -8.996094 C 7.292969 -9.117188 7.277344 -9.257812 7.277344 -9.398438 C 7.277344 -9.519531 7.292969 -9.769531 7.308594 -9.984375 L 7.277344 -10.03125 C 7.027344 -10 6.671875 -9.984375 6.347656 -9.984375 L 2.277344 -9.984375 C 1.75 -9.984375 1.484375 -10.03125 1.484375 -10.03125 L 1.457031 -9.984375 C 1.578125 -9.101562 1.609375 -8.050781 1.609375 -6.890625 L 1.609375 -3.097656 C 1.609375 -1.933594 1.578125 -0.835938 1.457031 0 L 1.472656 0.046875 C 1.472656 0.046875 1.734375 0 2.277344 0 L 6.503906 0 C 6.828125 0 7.183594 0.015625 7.429688 0.046875 L 7.460938 0 C 7.445312 -0.214844 7.429688 -0.324219 7.429688 -0.480469 C 7.429688 -0.632812 7.445312 -0.867188 7.460938 -0.992188 L 7.429688 -1.054688 C 7.429688 -1.054688 5.140625 -0.867188 3.066406 -0.867188 C 2.957031 -1.238281 2.941406 -2.832031 2.941406 -3.097656 Z M 2.941406 -3.097656 "/></g></g></g><g fill="#e4b344" fill-opacity="1"><g transform="translate(111.635115, 18.790867)"><g><path d="M 8.296875 -6.890625 L 8.296875 -5.652344 L 2.941406 -5.652344 L 2.941406 -6.890625 C 2.941406 -8.050781 2.972656 -9.164062 3.097656 -9.984375 L 3.082031 -10.03125 C 2.894531 -10 2.460938 -9.984375 2.277344 -9.984375 C 2.089844 -9.984375 1.671875 -10 1.484375 -10.03125 L 1.457031 -9.984375 C 1.578125 -9.101562 1.609375 -8.050781 1.609375 -6.890625 L 1.609375 -3.097656 C 1.609375 -1.933594 1.578125 -0.835938 1.457031 0 L 1.472656 0.046875 C 1.65625 0.015625 2.089844 0 2.277344 0 C 2.460938 0 2.878906 0.015625 3.066406 0.046875 L 3.097656 0 C 2.972656 -0.882812 2.941406 -1.933594 2.941406 -3.097656 L 2.941406 -4.96875 L 8.296875 -4.96875 L 8.296875 -3.097656 C 8.296875 -1.933594 8.265625 -0.835938 8.144531 0 L 8.160156 0.046875 C 8.34375 0.015625 8.777344 0 8.964844 0 C 9.148438 0 9.566406 0.015625 9.753906 0.046875 L 9.785156 0 C 9.660156 -0.882812 9.628906 -1.933594 9.628906 -3.097656 L 9.628906 -6.890625 C 9.628906 -8.050781 9.660156 -9.164062 9.785156 -9.984375 L 9.769531 -10.03125 C 9.582031 -10 9.148438 -9.984375 8.964844 -9.984375 C 8.777344 -9.984375 8.359375 -10 8.175781 -10.03125 L 8.144531 -9.984375 C 8.265625 -9.101562 8.296875 -8.050781 8.296875 -6.890625 Z M 8.296875 -6.890625 "/></g></g></g><g fill="#e4b344" fill-opacity="1"><g transform="translate(123.926612, 18.790867)"><g><path d="M 4.242188 -3.652344 C 4.441406 -3.652344 4.660156 -4.039062 4.660156 -4.210938 C 4.660156 -4.351562 4.597656 -4.488281 4.441406 -4.488281 L 0.898438 -4.488281 C 0.710938 -4.488281 0.511719 -4.164062 0.511719 -3.917969 C 0.511719 -3.777344 0.605469 -3.652344 0.742188 -3.652344 Z M 4.242188 -3.652344 "/></g></g></g><g fill="#e4b344" fill-opacity="1"><g transform="translate(130.134408, 18.790867)"><g><path d="M 5.496094 -9.503906 C 7.679688 -9.503906 9.070312 -8.019531 9.070312 -4.800781 C 9.070312 -2.027344 7.789062 -0.527344 6.023438 -0.527344 C 4.164062 -0.527344 2.398438 -2.089844 2.398438 -5.0625 C 2.398438 -8.3125 4.007812 -9.503906 5.496094 -9.503906 Z M 10.667969 -5.09375 C 10.667969 -8.160156 8.484375 -10.1875 5.695312 -10.1875 C 2.925781 -10.1875 0.804688 -7.832031 0.804688 -4.800781 C 0.804688 -1.75 3.050781 0.15625 5.710938 0.15625 C 8.667969 0.15625 10.667969 -1.996094 10.667969 -5.09375 Z M 10.667969 -5.09375 "/></g></g></g><g fill="#e4b344" fill-opacity="1"><g transform="translate(142.658102, 18.790867)"><g><path d="M 1.671875 -9.984375 C 1.8125 -7.042969 1.765625 -2.460938 1.515625 0 L 1.546875 0.046875 C 1.734375 0.015625 1.902344 0 2.089844 0 C 2.277344 0 2.445312 0.015625 2.632812 0.046875 L 2.664062 0 C 2.539062 -0.882812 2.507812 -1.933594 2.507812 -3.097656 L 2.507812 -6.796875 C 2.507812 -7.742188 2.523438 -7.789062 3.113281 -7.042969 L 8.515625 -0.214844 C 8.683594 0.015625 8.933594 0.15625 9.179688 0.15625 C 9.398438 0.15625 9.460938 -0.03125 9.476562 -0.324219 C 9.550781 -3.855469 9.535156 -6.546875 9.785156 -9.984375 L 9.753906 -10.03125 C 9.566406 -10 9.398438 -9.984375 9.210938 -9.984375 C 9.027344 -9.984375 8.855469 -10 8.667969 -10.03125 L 8.636719 -9.984375 C 8.761719 -9.101562 8.792969 -8.050781 8.792969 -6.890625 L 8.792969 -2.753906 C 8.761719 -1.902344 8.546875 -2.261719 7.878906 -3.144531 L 2.570312 -10.015625 C 2.570312 -10.015625 2.414062 -9.984375 2.351562 -9.984375 C 1.828125 -9.984375 1.703125 -10.03125 1.703125 -10.03125 Z M 1.671875 -9.984375 "/></g></g></g><g fill="#e4b344" fill-opacity="1"><g transform="translate(154.82576, 18.790867)"><g><path d="M 2.941406 -1.269531 L 2.941406 -8.730469 C 2.941406 -9.273438 3.484375 -9.351562 4.242188 -9.351562 C 7.585938 -9.351562 8.59375 -6.78125 8.59375 -4.398438 C 8.59375 -1.269531 6.8125 -0.648438 4.628906 -0.648438 C 3.113281 -0.648438 2.941406 -0.773438 2.941406 -1.269531 Z M 2.277344 -9.984375 C 1.75 -9.984375 1.484375 -10.03125 1.484375 -10.03125 L 1.457031 -9.984375 C 1.578125 -9.101562 1.609375 -8.050781 1.609375 -6.890625 L 1.609375 -3.097656 C 1.609375 -1.933594 1.578125 -0.835938 1.457031 0 L 1.472656 0.046875 C 1.472656 0.046875 1.734375 0 2.277344 0 C 3.375 0 3.515625 0.03125 5.109375 0.03125 C 7.292969 0.03125 10.1875 -0.960938 10.1875 -4.769531 C 10.1875 -7.648438 7.800781 -10.03125 4.832031 -10.03125 C 3.839844 -10.03125 3.265625 -9.984375 2.277344 -9.984375 Z M 2.277344 -9.984375 "/></g></g></g><g fill="#e4b344" fill-opacity="1"><g transform="translate(166.869577, 18.790867)"><g><path d="M 2.941406 -3.097656 L 2.941406 -4.90625 C 3.683594 -4.90625 5.324219 -4.859375 6.394531 -4.753906 L 6.441406 -4.800781 C 6.410156 -4.9375 6.394531 -5.15625 6.394531 -5.292969 C 6.394531 -5.433594 6.410156 -5.652344 6.441406 -5.789062 L 6.394531 -5.835938 C 5.480469 -5.757812 4.769531 -5.683594 2.941406 -5.683594 L 2.941406 -6.890625 C 2.941406 -7.152344 2.957031 -8.746094 3.066406 -9.117188 C 5.140625 -9.117188 7.277344 -8.933594 7.277344 -8.933594 L 7.308594 -8.996094 C 7.292969 -9.117188 7.277344 -9.257812 7.277344 -9.398438 C 7.277344 -9.519531 7.292969 -9.769531 7.308594 -9.984375 L 7.277344 -10.03125 C 7.027344 -10 6.671875 -9.984375 6.347656 -9.984375 L 2.277344 -9.984375 C 1.75 -9.984375 1.484375 -10.03125 1.484375 -10.03125 L 1.457031 -9.984375 C 1.578125 -9.101562 1.609375 -8.050781 1.609375 -6.890625 L 1.609375 -3.097656 C 1.609375 -1.933594 1.578125 -0.835938 1.457031 0 L 1.472656 0.046875 C 1.472656 0.046875 1.734375 0 2.277344 0 L 6.503906 0 C 6.828125 0 7.183594 0.015625 7.429688 0.046875 L 7.460938 0 C 7.445312 -0.214844 7.429688 -0.324219 7.429688 -0.480469 C 7.429688 -0.632812 7.445312 -0.867188 7.460938 -0.992188 L 7.429688 -1.054688 C 7.429688 -1.054688 5.140625 -0.867188 3.066406 -0.867188 C 2.957031 -1.238281 2.941406 -2.832031 2.941406 -3.097656 Z M 2.941406 -3.097656 "/></g></g></g><g fill="#e4b344" fill-opacity="1"><g transform="translate(176.250805, 18.790867)"><g><path d="M 8.296875 -6.890625 L 8.296875 -5.652344 L 2.941406 -5.652344 L 2.941406 -6.890625 C 2.941406 -8.050781 2.972656 -9.164062 3.097656 -9.984375 L 3.082031 -10.03125 C 2.894531 -10 2.460938 -9.984375 2.277344 -9.984375 C 2.089844 -9.984375 1.671875 -10 1.484375 -10.03125 L 1.457031 -9.984375 C 1.578125 -9.101562 1.609375 -8.050781 1.609375 -6.890625 L 1.609375 -3.097656 C 1.609375 -1.933594 1.578125 -0.835938 1.457031 0 L 1.472656 0.046875 C 1.65625 0.015625 2.089844 0 2.277344 0 C 2.460938 0 2.878906 0.015625 3.066406 0.046875 L 3.097656 0 C 2.972656 -0.882812 2.941406 -1.933594 2.941406 -3.097656 L 2.941406 -4.96875 L 8.296875 -4.96875 L 8.296875 -3.097656 C 8.296875 -1.933594 8.265625 -0.835938 8.144531 0 L 8.160156 0.046875 C 8.34375 0.015625 8.777344 0 8.964844 0 C 9.148438 0 9.566406 0.015625 9.753906 0.046875 L 9.785156 0 C 9.660156 -0.882812 9.628906 -1.933594 9.628906 -3.097656 L 9.628906 -6.890625 C 9.628906 -8.050781 9.660156 -9.164062 9.785156 -9.984375 L 9.769531 -10.03125 C 9.582031 -10 9.148438 -9.984375 8.964844 -9.984375 C 8.777344 -9.984375 8.359375 -10 8.175781 -10.03125 L 8.144531 -9.984375 C 8.265625 -9.101562 8.296875 -8.050781 8.296875 -6.890625 Z M 8.296875 -6.890625 "/></g></g></g></svg>